#!OML:ASF \\sashay\E\basketball\basketball\Project 1\Capture day 1\Session 1\Subject.ASF
:FULLY-SPECIFIED
:DEGREES
353
root 28.6954 13.0311 -5.23122 -187.272 -72.4993 181.103
lowerback 32.6449 2.67775 9.11229
upperback 8.90662 5.12199 -0.0332578
thorax -6.06374 2.01527 -6.50765
lowerneck -16.4494 8.05585 -9.37794
upperneck -3.31415 12.0995 0.440518
head 1.09467 6.04403 2.39334
rclavicle -9.14409e-015 -1.90833e-014
rhumerus 39.7478 -15.4327 -45.709
rradius 55.2017
rwrist -24.7609
rhand -36.6316 45.1513
rfingers 7.12502
rthumb -9.7192 15.3955
lclavicle -9.14409e-015 -1.90833e-014
lhumerus -56.0828 -7.48345 85.3526
lradius 44.2611
lwrist 29.4853
lhand -36.1418 13.881
lfingers 7.12502
lthumb -9.24664 43.6582
rfemur -39.1193 -31.4938 1.58696
rtibia 50.3027
rfoot 3.83124 -6.20944
rtoes -54.4293
lfemur -21.9847 32.2902 16.4148
ltibia 95.96
lfoot -0.105084 -0.499632
ltoes -3.11982
354
root 28.7348 13.0825 -5.05814 -188.396 -73.1867 181.919
lowerback 32.221 2.63356 9.01054
upperback 8.678 5.06026 -0.0839377
thorax -6.16714 1.99542 -6.48718
lowerneck -16.3694 8.15405 -9.29953
upperneck -3.0349 12.2217 0.702511
head 1.15665 6.10886 2.47748
rclavicle 8.34896e-015 -1.59028e-015
rhumerus 38.3189 -15.8639 -43.8949
rradius 54.6735
rwrist -23.8497
rhand -36.8933 45.4142
rfingers 7.12502
rthumb -9.97167 15.6704
lclavicle 8.34896e-015 -1.59028e-015
lhumerus -57.2518 -8.3097 86.5197
lradius 44.3356
lwrist 30.0843
lhand -35.8055 13.5767
lfingers 7.12502
lthumb -8.92212 43.3681
rfemur -37.0507 -31.5023 0.841194
rtibia 47.6721
rfoot 4.95723 -6.18665
rtoes -54.9671
lfemur -19.8788 31.6272 16.8509
ltibia 95.3673
lfoot 2.13215 -2.45431
ltoes -6.78487
355
root 28.7759 13.1343 -4.87837 -189.418 -74.1258 182.754
lowerback 31.6915 2.54119 8.86931
upperback 8.40838 4.93003 -0.114765
thorax -6.28755 1.94438 -6.40211
lowerneck -16.0375 8.21358 -8.92759
upperneck -2.70675 12.2265 0.890038
head 1.22086 6.1119 2.47088
rclavicle -7.196e-014 1.59028e-015
rhumerus 36.5387 -16.365 -41.9775
rradius 54.4649
rwrist -23.4965
rhand -37.4143 46.67
rfingers 7.12502
rthumb -10.4744 16.9509
lclavicle -7.196e-014 1.59028e-015
lhumerus -58.488 -8.90967 87.6214
lradius 44.5206
lwrist 30.1871
lhand -35.3842 13.3065
lfingers 7.12502
lthumb -8.51551 43.1148
rfemur -34.8139 -31.3319 -0.110294
rtibia 44.8543
rfoot 5.60053 -6.71974
rtoes -55.0682
lfemur -18.2812 30.8554 16.6288
ltibia 94.4664
lfoot 5.11208 -4.04098
ltoes -8.80001
356
root 28.8184 13.1955 -4.69191 -190.212 -75.1805 183.554
lowerback 30.7296 2.50322 8.54255
upperback 8.53777 4.74647 0.117703
thorax -6.34512 1.86054 -6.3673
lowerneck -15.942 8.24437 -8.53552
upperneck -2.42597 12.2035 1.08449
head 1.31188 6.10008 2.4753
rclavicle 5.32743e-014 -1.59028e-015
rhumerus 34.7542 -17.0931 -40.1865
rradius 54.4064
rwrist -23.3918
rhand -37.3583 46.8112
rfingers 7.12502
rthumb -10.4203 17.0894
lclavicle 5.32743e-014 -1.59028e-015
lhumerus -59.3949 -9.28957 88.5947
lradius 44.56
lwrist 30.1097
lhand -34.9415 13.0497
lfingers 7.12502
lthumb -8.0883 42.8749
rfemur -32.5778 -30.9166 -1.14836
rtibia 41.8699
rfoot 5.70839 -7.79595
rtoes -54.4669
lfemur -17.1098 30.0501 15.7227
ltibia 93.1645
lfoot 8.44525 -5.51335
ltoes -10.5904
357
root 28.868 13.2639 -4.50069 -191.171 -76.316 184.579
lowerback 30.1263 2.40976 8.21049
upperback 8.32799 4.54452 0.0886569
thorax -6.36902 1.78079 -6.11862
lowerneck -15.7149 8.31796 -8.04691
upperneck -2.53209 12.1952 1.21594
head 1.25888 6.10223 2.41743
rclavicle -9.14409e-015 1.66979e-014
rhumerus 32.631 -17.8502 -38.3229
rradius 54.6558
rwrist -23.6147
rhand -37.3094 46.9662
rfingers 7.12502
rthumb -10.3732 17.242
lclavicle -9.14409e-015 1.66979e-014
lhumerus -60.1088 -9.55018 89.4728
lradius 44.5519
lwrist 29.8931
lhand -34.4938 13.6113
lfingers 7.12502
lthumb -7.65622 43.4527
rfemur -30.2124 -29.9561 -2.23336
rtibia 38.7944
rfoot 5.97957 -9.27527
rtoes -54.0981
lfemur -16.2686 29.2416 14.3334
ltibia 91.4691
lfoot 9.25227 -7.81634
ltoes -22.9352
358
root 28.9282 13.3307 -4.3085 -192.49 -77.6083 186.053
lowerback 29.5778 2.29419 7.87259
upperback 8.00464 4.34153 0.10501
thorax -6.54759 1.69311 -5.82548
lowerneck -15.0028 8.38778 -7.5248
upperneck -2.72275 12.1485 1.4268
head 1.09414 6.09232 2.34376
rclavicle 3.65764e-014 5.56597e-015
rhumerus 29.929 -18.4851 -36.1487
rradius 55.2262
rwrist -24.3545
rhand -36.9318 46.7548
rfingers 7.12502
rthumb -10.0088 17.0128
lclavicle 3.65764e-014 5.56597e-015
lhumerus -60.9042 -9.65454 90.3366
lradius 44.4424
lwrist 29.4629
lhand -34.2437 13.9432
lfingers 7.12502
lthumb -7.41478 43.7933
rfemur -27.8094 -28.4333 -3.33314
rtibia 35.6659
rfoot 6.25971 -11.4974
rtoes -53.839
lfemur -15.6915 28.5231 12.6367
ltibia 89.5306
lfoot 9.02494 -9.80789
ltoes -37.4463
359
root 28.9943 13.3928 -4.11636 -194.279 -79.0411 188.109
lowerback 28.7704 2.1822 7.3454
upperback 7.86108 4.06093 0.295808
thorax -6.43315 1.58296 -5.18285
lowerneck -14.87 8.30316 -7.2981
upperneck -2.37914 11.9933 2.04104
head 1.17101 6.02892 2.50689
rclavicle 1.78906e-014 1.94809e-014
rhumerus 27.728 -19.4339 -34.2767
rradius 55.6658
rwrist -24.7555
rhand -36.5099 46.4389
rfingers 7.12502
rthumb -9.60181 16.6777
lclavicle 1.78906e-014 1.94809e-014
lhumerus -61.2085 -9.5113 91.3905
lradius 43.984
lwrist 29.1956
lhand -34.2295 13.7959
lfingers 7.12502
lthumb -7.4011 43.6464
rfemur -25.3998 -26.459 -4.42766
rtibia 32.466
rfoot 4.79358 -15.1856
rtoes -51.371
lfemur -15.173 27.9473 10.8187
ltibia 87.5629
lfoot 4.59787 -8.37511
ltoes -48.2814
360
root 29.0646 13.4562 -3.92569 -196.734 -80.4845 190.917
lowerback 28.0353 2.07637 6.70602
upperback 7.75445 3.76437 0.550373
thorax -6.31469 1.46198 -4.40925
lowerneck -14.9522 8.18504 -7.20751
upperneck -2.22361 11.8166 2.65094
head 1.21667 5.95706 2.69698
rclavicle -6.55989e-015 -1.15295e-014
rhumerus 25.7875 -20.7087 -32.8647
rradius 55.9836
rwrist -24.4863
rhand -36.3756 46.1982
rfingers 7.12502
rthumb -9.47224 16.431
lclavicle -6.55989e-015 -1.15295e-014
lhumerus -61.391 -9.42191 92.5869
lradius 43.6992
lwrist 29.2896
lhand -33.8663 14.1534
lfingers 7.12502
lthumb -7.05049 44.0159
rfemur -22.9534 -23.92 -5.40154
rtibia 29.168
rfoot 1.85495 -19.3918
rtoes -46.4884
lfemur -14.7608 27.5159 9.05549
ltibia 85.7237
lfoot -0.928046 -7.12401
ltoes -47.0012
361
root 29.1361 13.5454 -3.73216 -199.026 -81.824 193.605
lowerback 27.3685 2.07115 5.82596
upperback 7.64666 3.53958 0.777862
thorax -6.22499 1.37347 -3.56059
lowerneck -14.8297 8.18378 -6.98868
upperneck -2.38338 11.7598 3.04133
head 1.13554 5.9415 2.77112
rclavicle -3.45885e-014 -5.96354e-015
rhumerus 23.6358 -22.0969 -31.4772
rradius 56.3808
rwrist -24.1046
rhand -36.1069 45.8541
rfingers 7.12502
rthumb -9.21298 16.0754
lclavicle -3.45885e-014 -5.96354e-015
lhumerus -61.674 -9.39283 93.7257
lradius 43.7978
lwrist 29.6015
lhand -33.0674 14.6149
lfingers 7.12502
lthumb -6.2793 44.5018
rfemur -20.5646 -20.6878 -6.34269
rtibia 25.8075
rfoot -1.54505 -23.4894
rtoes -39.4342
lfemur -14.5085 27.138 7.13591
ltibia 84.0064
lfoot -5.02834 -6.35995
ltoes -39.8817
362
root 29.2072 13.6624 -3.53116 -201.31 -83.1034 196.33
lowerback 26.6584 2.09562 4.86379
upperback 7.62941 3.32176 0.947271
thorax -5.99997 1.29082 -2.73196
lowerneck -14.9833 8.09994 -6.84487
upperneck -2.40865 11.6164 3.65714
head 1.13517 5.88699 2.95368
rclavicle 5.38706e-014 -1.47101e-014
rhumerus 21.4294 -23.6297 -30.1415
rradius 56.8002
rwrist -23.746
rhand -35.7165 45.7966
rfingers 7.12502
rthumb -8.83619 16.0016
lclavicle 5.38706e-014 -1.47101e-014
lhumerus -61.9689 -9.4951 94.7836
lradius 44.0823
lwrist 30.1769
lhand -32.4165 14.571
lfingers 7.12502
lthumb -5.65088 44.4756
rfemur -18.2455 -16.4322 -7.40588
rtibia 22.5525
rfoot -8.77315 -27.2679
rtoes -20.5197
lfemur -14.4921 26.7214 4.97197
ltibia 82.3309
lfoot -8.84475 -5.54284
ltoes -36.4564
363
root 29.2818 13.7474 -3.33533 -204.855 -84.4148 200.392
lowerback 25.899 2.03911 4.01775
upperback 7.70844 3.02313 1.05979
thorax -5.62436 1.16823 -2.00907
lowerneck -15.5485 7.90517 -6.71219
upperneck -2.38299 11.3408 4.28872
head 1.23122 5.76612 3.1693
rclavicle 8.15017e-015 8.74653e-015
rhumerus 19.4955 -25.4257 -29.1699
rradius 57.0705
rwrist -23.2002
rhand -35.4919 45.9969
rfingers 7.12502
rthumb -8.6195 16.1929
lclavicle 8.15017e-015 8.74653e-015
lhumerus -62.2094 -9.76019 95.7498
lradius 44.5517
lwrist 30.873
lhand -31.88 14.528
lfingers 7.12502
lthumb -5.13283 44.4458
rfemur -16.3598 -13.1666 -7.89486
rtibia 19.777
rfoot -9.98831 -31.2896
rtoes -14.4521
lfemur -14.7576 26.4062 2.91115
ltibia 80.7844
lfoot -12.3301 -4.32634
ltoes -44.3598
